<?xml version="1.0" standalone="no"?>
<!DOCTYPE svg PUBLIC "-//W3C//DTD SVG 20010904//EN"
 "http://www.w3.org/TR/2001/REC-SVG-20010904/DTD/svg10.dtd">
<svg version="1.0" xmlns="http://www.w3.org/2000/svg"
 width="1280.000000pt" height="1280.000000pt" viewBox="0 0 1280.000000 1280.000000"
 preserveAspectRatio="xMidYMid meet">
<metadata>
Created by potrace 1.15, written by Peter Selinger 2001-2017
</metadata>
<g transform="translate(0.000000,1280.000000) scale(0.100000,-0.100000)"
fill="#FF003E" stroke="none">
<path d="M6020 12350 c-531 -33 -1042 -131 -1535 -294 -1191 -395 -2209 -1136
-2963 -2157 -530 -719 -911 -1614 -1067 -2510 -125 -718 -116 -1456 26 -2164
322 -1604 1282 -3003 2659 -3874 833 -527 1731 -824 2755 -912 215 -19 707
-16 935 5 942 86 1795 362 2580 834 1532 921 2570 2482 2830 4256 70 476 79
1046 24 1526 -121 1065 -525 2078 -1169 2930 -1023 1353 -2578 2209 -4269
2349 -182 16 -634 21 -806 11z"/>
</g>
</svg>
